<?xml version="1.0" encoding="UTF-8" standalone="no"?>
<svg viewBox="0 0 300 300" xmlns="http://www.w3.org/2000/svg" xmlns:xlink="http://www.w3.org/1999/xlink">
<defs>
<filter id="filter4639-2">
<feGaussianBlur result="result10" stdDeviation="3"/>
<feBlend in="result10" in2="SourceGraphic" mode="multiply" result="result5"/>
<feComposite in="result5" in2="SourceGraphic" operator="over" result="fbSourceGraphic"/>
<feGaussianBlur result="result9" stdDeviation="5"/>
<feSpecularLighting in="result9" result="result1" specularConstant="2.2" specularExponent="45" surfaceScale="1">
<fePointLight x="-5000" y="-10000" z="20000"/>
</feSpecularLighting>
<feComposite in="result1" in2="fbSourceGraphic" operator="in" result="result2"/>
<feComposite in="result2" in2="fbSourceGraphic" k1="0" k2="2" k3=".8" k4="0" operator="arithmetic" result="result4"/>
<feBlend in="result4" in2="result4" mode="multiply"/>
</filter>
<filter id="filter4659">
<feGaussianBlur result="result10" stdDeviation="3"/>
<feBlend in="result10" in2="SourceGraphic" mode="multiply" result="result5"/>
<feComposite in="result5" in2="SourceGraphic" operator="over" result="fbSourceGraphic"/>
<feGaussianBlur result="result9" stdDeviation="5"/>
<feSpecularLighting in="result9" result="result1" specularConstant="2.2" specularExponent="45" surfaceScale="1">
<fePointLight x="-5000" y="-10000" z="20000"/>
</feSpecularLighting>
<feComposite in="result1" in2="fbSourceGraphic" operator="in" result="result2"/>
<feComposite in="result2" in2="fbSourceGraphic" k2="2" k3=".8" operator="arithmetic" result="result4"/>
<feBlend in="result4" in2="result4" mode="multiply"/>
</filter>
<filter id="filter3964">
<feGaussianBlur in="SourceAlpha" result="result0" stdDeviation="6"/>
<feSpecularLighting in="result0" result="result1" specularConstant="1" specularExponent="25" surfaceScale="10">
<feDistantLight azimuth="235" elevation="45"/>
</feSpecularLighting>
<feComposite in="SourceGraphic" in2="result1" k2="1" k3="1" operator="arithmetic" result="result4"/>
<feComposite in="result4" in2="SourceAlpha" operator="in" result="result2"/>
</filter>
<filter height="1.5" id="filter4296" width="1.5" x="-.25" y="-.25">
<feGaussianBlur in="SourceAlpha" result="blur" stdDeviation="3"/>
<feColorMatrix result="bluralpha" type="matrix" values="1 0 0 0 0 0 1 0 0 0 0 0 1 0 0 0 0 0 0.25 0"/>
<feOffset dx="7" dy="8" in="bluralpha" result="offsetBlur"/>
<feMerge>
<feMergeNode in="offsetBlur"/>
<feMergeNode in="SourceGraphic"/>
</feMerge>
</filter>
<filter height="1.5" id="filter4184" width="1.5" x="-.25" y="-.25">
<feGaussianBlur in="SourceAlpha" result="result0" stdDeviation="6"/>
<feSpecularLighting in="result0" result="result1" specularConstant="1" specularExponent="25" surfaceScale="10">
<feDistantLight azimuth="235" elevation="45"/>
</feSpecularLighting>
<feComposite in="SourceGraphic" in2="result1" k2="1" k3="1" operator="arithmetic" result="result4"/>
<feComposite in="result4" in2="SourceAlpha" operator="in" result="fbSourceGraphic"/>
<feColorMatrix in="fbSourceGraphic" result="fbSourceGraphicAlpha" values="0 0 0 -1 0 0 0 0 -1 0 0 0 0 -1 0 0 0 0 1 0"/>
<feGaussianBlur in="fbSourceGraphicAlpha" result="blur" stdDeviation="3"/>
<feColorMatrix result="bluralpha" type="matrix" values="1 0 0 0 0 0 1 0 0 0 0 0 1 0 0 0 0 0 0.25 0"/>
<feOffset dx="7" dy="8" in="bluralpha" result="offsetBlur"/>
<feMerge>
<feMergeNode in="offsetBlur"/>
<feMergeNode in="fbSourceGraphic"/>
</feMerge>
</filter>
<linearGradient id="linearGradient3820-7">
<stop offset="0" stop-color="#8493ab"/>
<stop offset="1" stop-color="#d2dfdb"/>
</linearGradient>
<linearGradient gradientUnits="userSpaceOnUse" id="linearGradient11795" x1="212.89062" x2="242.23422">
<stop offset="0" stop-color="#777774"/>
<stop offset=".58129" stop-color="#dddcdd"/>
<stop offset="1" stop-color="#848383"/>
</linearGradient>
<linearGradient gradientUnits="userSpaceOnUse" id="linearGradient11789" x2="0" xlink:href="#linearGradient3820-7" y1="96.875" y2="332.07797"/>
<linearGradient gradientUnits="userSpaceOnUse" id="linearGradient11791" x2="0" xlink:href="#linearGradient3820-7" y1="69.6657" y2="117.35268"/>
<linearGradient gradientUnits="userSpaceOnUse" id="linearGradient11793" x1="-2.80665" x2="52.75396" xlink:href="#linearGradient3820-7" y1="882.80639" y2="938.36699"/>
</defs>
<g transform="matrix(3.24124,0,0,3.24124,74.60916,-2791.22588)">
<path d="m47.0177,98.4375h203.62085c1.8103,0 3.2677,2.20653 3.2677,4.94738v198.69899c0,2.74085-1.4574,4.94738-3.2677,4.94738h-203.62085c-1.81031,0-3.2677-2.20653-3.2677-4.94738v-198.69899c0-2.74085 1.4574-4.94738 3.2677-4.94738z" fill="url(#linearGradient11789)" fill-rule="evenodd" filter="url(#filter4296)" stroke="#a2a7e0" stroke-linejoin="round" transform="matrix(.27936,0,0,.27936,-19.02343,852.64152)"/>
<path d="m206.10978,68.09869c.66683,0 44.60012,27.86512 44.60012,27.86512 2.56803.95785-204.5448,0-204.5448,0-1.81031,0 46.60012-27.86512 46.60012-27.86512 .94594-.35283 113.34456,0 113.34456,0z" fill="url(#linearGradient11791)" fill-rule="evenodd" filter="url(#filter4296)" stroke="#a2a7e0" stroke-linejoin="round" transform="matrix(.27936,0,0,.27936,-19.02343,852.64152)"/>
<path d="m-1.46147,884.66102h47.1301c.41901,0 .75634.51072.75634,1.14512v45.99089c0,.63439-.33733,1.14511-.75634,1.14511h-47.1301c-.41901,0-.75634-.51072-.75634-1.14511v-45.99089c0-.6344.33733-1.14512.75634-1.14512z" fill="url(#linearGradient11793)" fill-rule="evenodd" stroke="#434143" stroke-linejoin="round" stroke-width=".23146"/>
<path d="m73.5802,717.20593h1.27709a3.2677,4.94738 0 0,1 3.2677,4.94738v72.91774a3.2677,4.94738 0 0,1 -3.2677,4.94738h-1.27709a3.2677,4.94738 0 0,1 -3.2677-4.94738v-72.91774a3.2677,4.94738 0 0,1 3.2677-4.94738" fill="#4e4f6a" fill-rule="evenodd" filter="url(#filter3964)" transform="matrix(.27936,0,0,.27936,-19.02343,698.33369)"/>
<g fill="#6270a8" opacity=".67826" transform="matrix(.20491,0,0,.20491,-7.6478,754.21745)">
<path d="m-867.01831-163.78094h3.62084a3.2677,4.94738 0 0,1 3.2677,4.94738v81.51149a3.2677,4.94738 0 0,1 -3.2677,4.94738h-3.62084a3.2677,4.94738 0 0,1 -3.2677-4.94738v-81.51149a3.2677,4.94738 0 0,1 3.2677-4.94738" fill="#6270a8" fill-rule="evenodd" filter="url(#filter4184)" transform="matrix(-.37368,-.64723,.64723,-.37368,-127.21696,175.32948)"/>
<g fill="#6270a8">
<path d="m372.65625,724.14988c-32.40864,0-58.68105,26.27241-58.68105,58.68105s26.27241,58.68105 58.68105,58.68105 58.68105-26.27241 58.68105-58.68105v-.46429c-.26098-32.22214-26.45785-58.21676-58.68105-58.21676zm.64485,19.83549c20.9711,0 38.03087,16.92077 38.20071,37.89119v.30952c0,21.09179-17.10892,38.20072-38.20071,38.20072s-38.20072-17.10893-38.20072-38.20072 17.10893-38.20071 38.20072-38.20071z" fill="#6270a8" fill-rule="evenodd" filter="url(#filter4184)" transform="matrix(.53367,0,0,.53367,-47.58422,342.61226)"/>
<path d="m385.15625,233.20312c0,8.41372-6.82066,15.23438-15.23438,15.23438s-15.23437-6.82066-15.23437-15.23438 6.82066-15.23437 15.23437-15.23437c8.36557,0 15.16613,6.7457 15.23388,15.11099" fill="#6270a8" fill-rule="evenodd" filter="url(#filter4184)" transform="matrix(.74736,0,0,.74736,-123.71371,586.97341)"/>
<path d="m372.79895,132.03125h3.62084a3.2677,4.94738 0 0,1 3.2677,4.94738v81.51149a3.2677,4.94738 0 0,1 -3.2677,4.94738h-3.62084a3.2677,4.94738 0 0,1 -3.2677-4.94738v-81.51149a3.2677,4.94738 0 0,1 3.2677-4.94738" fill="#6270a8" fill-rule="evenodd" filter="url(#filter4184)" transform="matrix(.74736,0,0,.74736,-127.21696,588.14115)"/>
<path d="m489.64667-813.26135h3.62084a3.2677,4.94738 0 0,1 3.2677,4.94738v81.51149a3.2677,4.94738 0 0,1 -3.2677,4.94738h-3.62084a3.2677,4.94738 0 0,1 -3.2677-4.94738v-81.51149a3.2677,4.94738 0 0,1 3.2677-4.94738" fill="#6270a8" fill-rule="evenodd" filter="url(#filter4184)" transform="matrix(-.37368,.64723,-.64723,-.37368,-127.21696,175.32948)"/>
</g>
</g>
<g transform="matrix(.27936,0,0,.27936,-19.02343,698.33369)">
<path d="m216.83777,806.45541 14.02797-.16976c0,0-.36856-3.62659 2.68615-3.62659s2.68233,3.59681 2.68233,3.59681l3.66508-.0665c2.49859,0 .77625,13.07839.77625,13.07839l-4.27287-.002c-1.5471-.00075.74466,3.09522-2.81837,3.09398s-.66006-3.09984-3.15674-3.10077l-13.5898-.001c-2.49858,0-4.51008-2.43005-4.51008-5.44855v-1.90541c0-3.0185 2.01186-5.4059 4.51008-5.44855z" fill="url(#linearGradient11795)" fill-rule="evenodd" stroke="#999995" stroke-linejoin="round" stroke-width=".4"/>
<path d="m351.8961,238.56384c0,.99157-.80383,1.79539-1.79539,1.79539s-1.79539-.80382-1.79539-1.79539 .80382-1.79539 1.79539-1.79539 1.78734.79499 1.79533,1.78085" fill="#e0dbeb" fill-rule="evenodd" filter="url(#filter4659)" opacity=".67826" transform="matrix(.72804,0,0,.72804,-37.04238,636.1954)"/>
<path d="m351.8961,238.56384c0,.99157-.80383,1.79539-1.79539,1.79539s-1.79539-.80382-1.79539-1.79539 .80382-1.79539 1.79539-1.79539 1.78734.79499 1.79533,1.78085" fill="#e0dbeb" fill-rule="evenodd" filter="url(#filter4659)" opacity=".67826" transform="matrix(.72804,0,0,.72804,-37.04238,642.02711)"/>
</g>
<g transform="matrix(.27936,0,0,.27936,-19.08724,670.61847)">
<path d="m216.83777,806.45541 14.02797-.16976c0,0-.36856-3.62659 2.68615-3.62659s2.68233,3.59681 2.68233,3.59681l3.66508-.0665c2.49859,0 .77625,13.07839.77625,13.07839l-4.27287-.002c-1.5471-.00075.74466,3.09522-2.81837,3.09398s-.66006-3.09984-3.15674-3.10077l-13.5898-.001c-2.49858,0-4.51008-2.43005-4.51008-5.44855v-1.90541c0-3.0185 2.01186-5.4059 4.51008-5.44855z" fill="url(#linearGradient11795)" fill-rule="evenodd" stroke="#999995" stroke-linejoin="round" stroke-width=".4"/>
<path d="m351.8961,238.56384c0,.99157-.80383,1.79539-1.79539,1.79539s-1.79539-.80382-1.79539-1.79539 .80382-1.79539 1.79539-1.79539 1.78734.79499 1.79533,1.78085" fill="#e0dbeb" fill-rule="evenodd" filter="url(#filter4639-2)" opacity=".67826" transform="matrix(.72804,0,0,.72804,-37.04238,636.1954)"/>
<path d="m351.8961,238.56384c0,.99157-.80383,1.79539-1.79539,1.79539s-1.79539-.80382-1.79539-1.79539 .80382-1.79539 1.79539-1.79539 1.78734.79499 1.79533,1.78085" fill="#e0dbeb" fill-rule="evenodd" filter="url(#filter4639-2)" opacity=".67826" transform="matrix(.72804,0,0,.72804,-37.04238,642.02711)"/>
</g>
</g>
</svg>
